<?xml version="1.0" standalone="no"?>
<svg version="1.0" xmlns="http://www.w3.org/2000/svg"
 width="20348.000000pt" height="15665.000000pt" viewBox="0 0 20348.000000 15665.000000"
 preserveAspectRatio="xMidYMid meet">

<g transform="translate(0.000000,15665.000000) scale(0.100000,-0.100000)"
fill="#fff" stroke="none">
<path d="M99190 156639 c-3289 -50 -6583 -296 -9843 -734 -11247 -1515 -22031
-5344 -31627 -11230 -8884 -5450 -16565 -12532 -22618 -20858 -3191 -4388
-5907 -9098 -8097 -14042 -2436 -5500 -4218 -11289 -5300 -17221 -182 -997
-242 -1689 -232 -2668 5 -516 11 -640 47 -1044 244 -2692 1306 -5233 3065
-7332 471 -562 1103 -1194 1665 -1665 1727 -1447 3765 -2438 5995 -2915 822
-176 1629 -272 2525 -300 507 -16 131483 -8 131715 8 387 27 592 44 810 68
3656 398 6974 2202 9246 5029 2317 2883 3322 6544 2799 10196 -22 152 -69 436
-104 630 -826 4514 -2040 8900 -3646 13174 -2407 6408 -5691 12499 -9741
18071 -2111 2905 -4389 5622 -6918 8254 -346 360 -1379 1397 -1796 1804 -5155
5022 -11067 9379 -17443 12855 -1575 858 -3230 1690 -4842 2433 -7935 3660
-16416 6014 -25165 6987 -3459 385 -6990 553 -10495 500z m2855 -4479 c10671
-216 21071 -2581 30650 -6970 1320 -605 2772 -1323 4040 -1998 6672 -3549
12781 -8081 18035 -13379 6317 -6368 11344 -13703 14925 -21778 2053 -4628
3607 -9448 4649 -14415 154 -737 354 -1773 416 -2155 126 -783 149 -1540 69
-2323 -190 -1882 -996 -3672 -2286 -5084 -175 -191 -524 -534 -705 -691 -1393
-1216 -3097 -1976 -4938 -2202 -309 -38 -539 -54 -925 -65 -544 -17 -131128
-8 -131335 8 -426 33 -707 66 -1015 118 -1538 259 -2976 899 -4188 1863 -466
371 -946 841 -1323 1296 -1134 1370 -1829 3026 -2003 4775 -32 321 -41 508
-41 880 0 618 42 1056 166 1735 1381 7566 3954 14833 7642 21585 1484 2719
3171 5380 5016 7915 2993 4112 6443 7939 10256 11375 7762 6994 16941 12316
26945 15623 7349 2429 15028 3736 22845 3887 998 20 2124 19 3105 0z"/>
<path d="M85060 139620 c-1106 -54 -2091 -295 -2965 -725 -650 -320 -1132
-683 -1536 -1155 -281 -328 -506 -754 -604 -1139 -55 -218 -69 -338 -69 -596
-1 -315 28 -497 121 -780 285 -868 1084 -1660 2198 -2178 1992 -926 4667 -900
6605 64 1259 627 2029 1534 2176 2564 23 159 23 496 1 648 -75 496 -272 934
-613 1362 -104 131 -329 363 -469 484 -946 822 -2331 1333 -3905 1441 -216 15
-731 20 -940 10z"/>
<path d="M117555 139619 c-1343 -59 -2613 -438 -3570 -1067 -637 -419 -1135
-968 -1379 -1520 -151 -340 -214 -612 -223 -967 -12 -468 95 -893 332 -1315
317 -564 870 -1089 1565 -1485 1995 -1135 4951 -1196 7051 -144 526 263 945
563 1309 935 406 416 668 862 790 1343 182 719 27 1476 -433 2121 -980 1373
-3125 2200 -5442 2099z"/>
<path d="M98900 129883 c-1829 -49 -3493 -675 -4471 -1680 -492 -506 -772
-1054 -850 -1663 -16 -123 -16 -449 0 -570 100 -748 511 -1421 1221 -1996 842
-682 2069 -1149 3400 -1294 350 -38 498 -45 945 -44 526 1 813 21 1265 90
1235 189 2337 654 3135 1323 129 108 387 368 486 491 462 570 675 1148 656
1785 -6 203 -21 323 -63 500 -86 360 -280 752 -532 1074 -727 930 -2019 1609
-3557 1870 -363 61 -698 95 -1106 111 -240 9 -299 10 -529 3z"/>
<path d="M133350 129884 c-649 -22 -1220 -100 -1794 -245 -1165 -295 -2173
-858 -2793 -1562 -394 -448 -623 -902 -715 -1422 -25 -144 -35 -489 -19 -647
73 -694 447 -1356 1081 -1913 856 -751 2124 -1258 3535 -1414 338 -38 502 -46
935 -46 523 0 832 22 1280 91 1267 194 2406 682 3180 1361 629 552 995 1181
1085 1866 17 135 20 435 5 572 -87 781 -565 1529 -1354 2117 -939 701 -2254
1142 -3661 1227 -182 11 -623 20 -765 15z"/>
<path d="M67225 127559 c-1780 -91 -3384 -737 -4319 -1738 -449 -482 -713
-1019 -787 -1601 -16 -122 -16 -438 0 -560 63 -499 269 -966 618 -1405 102
-129 398 -429 530 -538 446 -367 928 -647 1521 -881 1027 -406 2226 -583 3432
-505 2199 141 4069 1125 4741 2494 177 361 254 666 266 1050 10 348 -41 640
-170 970 -497 1274 -2036 2280 -3992 2609 -584 98 -1239 136 -1840 105z"/>
<path d="M85165 118893 c-2032 -69 -3826 -840 -4725 -2032 -228 -302 -414
-690 -493 -1026 -50 -212 -62 -322 -62 -570 1 -305 30 -491 122 -770 285 -868
1084 -1660 2198 -2178 1992 -926 4667 -900 6605 64 1159 577 1904 1390 2130
2324 49 200 64 336 63 570 0 296 -37 518 -129 786 -144 421 -378 789 -734
1153 -503 515 -1159 921 -1973 1220 -895 330 -1969 494 -3002 459z"/>
<path d="M117565 118890 c-1117 -52 -2135 -304 -3015 -745 -514 -257 -919
-543 -1275 -900 -479 -479 -768 -1009 -866 -1585 -30 -178 -37 -479 -15 -664
100 -860 646 -1648 1566 -2261 223 -148 395 -247 635 -365 1279 -628 2897
-865 4475 -654 1314 175 2502 665 3315 1367 146 126 379 366 488 502 694 868
823 1885 358 2814 -650 1295 -2376 2252 -4431 2455 -374 37 -889 52 -1235 36z"/>
<path d="M121685 67594 c-899 -38 -1454 -92 -2160 -210 -3314 -554 -6069
-2193 -8248 -4908 -897 -1118 -1626 -2349 -2164 -3656 -654 -1586 -1049 -3336
-1178 -5205 -31 -451 -36 -614 -42 -1200 -6 -610 3 -976 33 -1445 225 -3522
1416 -6548 3589 -9115 509 -602 1189 -1286 1750 -1760 2217 -1876 4800 -2902
7825 -3109 733 -51 1710 -47 2560 10 2944 195 5565 1023 7810 2467 150 96 156
99 180 85 14 -8 68 -42 120 -75 186 -118 522 -298 1015 -543 1056 -524 1613
-757 1920 -802 101 -14 251 -1 355 31 124 39 213 122 247 230 23 72 18 187
-36 886 -169 2170 -279 4005 -336 5585 -31 885 -38 1265 -39 2085 0 832 3
1002 44 2185 35 998 39 1144 52 1767 15 767 7 874 -75 1042 -40 82 -106 149
-182 187 -60 29 -61 29 -270 32 -221 4 -556 -6 -1225 -38 -1119 -53 -1430 -51
-2465 15 -726 46 -1273 58 -1393 30 -126 -30 -199 -82 -244 -173 -32 -65 -33
-71 -37 -217 -4 -179 14 -797 34 -1195 38 -725 101 -1525 195 -2445 74 -726
372 -3934 386 -4160 l6 -100 -198 -122 c-1810 -1108 -3769 -1750 -5864 -1922
-430 -36 -654 -45 -1125 -45 -468 0 -626 7 -995 45 -1250 128 -2414 534 -3464
1207 -528 338 -1009 734 -1507 1238 -311 316 -559 598 -819 934 -1358 1751
-2138 3749 -2319 5940 -55 664 -57 1391 -5 2080 165 2222 907 4217 2205 5930
1097 1448 2383 2436 3889 2987 1207 442 2689 600 3930 418 1065 -155 2114
-567 3105 -1219 830 -546 1629 -1266 2587 -2329 743 -826 1119 -1201 1285
-1286 54 -27 66 -27 138 7 179 85 615 482 1216 1108 1210 1259 1870 2036 2007
2361 73 171 -36 415 -421 942 -380 520 -757 960 -1222 1427 -474 476 -871 819
-1405 1216 -648 481 -1282 868 -2060 1257 -994 496 -1940 852 -2955 1111 -888
227 -1695 354 -2640 415 -224 15 -1181 28 -1390 19z"/>
<path d="M84375 67110 c-1215 -17 -2117 -36 -4750 -100 -1726 -42 -3010 -65
-4415 -80 -906 -9 -939 -11 -1120 -61 -168 -46 -289 -133 -323 -233 -23 -67
-22 -97 18 -713 223 -3441 364 -6624 435 -9813 46 -2102 55 -4556 21 -5875
-39 -1493 -94 -2916 -196 -5060 -154 -3246 -222 -5238 -228 -6705 l-2 -555 23
-63 c55 -154 142 -230 309 -273 139 -35 531 -24 1288 36 1170 93 1307 91 2560
-35 733 -73 1193 -101 1334 -81 146 22 244 90 297 205 46 100 48 163 35 880
-19 1097 -52 2020 -136 3796 -55 1181 -86 1961 -115 2910 -18 593 -24 1550
-11 1700 29 325 96 528 215 658 98 105 178 127 546 151 609 41 1556 54 3485
49 1604 -5 1643 -5 1770 -26 199 -32 354 -69 531 -127 285 -93 499 -214 670
-378 101 -96 152 -158 214 -260 22 -38 247 -539 499 -1115 2169 -4954 3387
-7677 3561 -7967 129 -214 298 -346 506 -396 85 -20 105 -21 434 -15 344 5
503 13 1205 60 680 46 798 51 1235 51 443 0 516 -4 1245 -55 712 -50 793 -54
1125 -54 361 -1 399 4 460 65 57 57 51 123 -30 344 -235 640 -986 2251 -2515
5395 -1224 2517 -1844 3822 -2257 4755 -132 299 -280 664 -299 738 -26 104 8
215 100 331 66 82 142 145 401 328 1381 975 2369 1971 2997 3024 688 1152
1039 2629 1114 4694 13 352 7 1220 -10 1445 -33 424 -69 747 -122 1060 -262
1577 -874 2908 -1856 4037 -147 170 -598 618 -773 769 -1159 1000 -2520 1692
-4145 2109 -948 243 -1894 378 -3080 440 -278 15 -1500 20 -2250 10z m-255
-4360 c2002 -70 3439 -303 4422 -716 1178 -495 1974 -1448 2374 -2838 151
-525 239 -1073 286 -1776 16 -253 17 -992 0 -1195 -62 -756 -217 -1357 -492
-1905 -720 -1437 -2217 -2243 -4485 -2414 -426 -32 -749 -39 -1630 -32 -1756
13 -3244 61 -4210 136 -746 58 -912 79 -1037 132 l-48 20 0 2512 c0 4411 33
6297 126 7296 28 308 32 320 111 390 273 241 1214 373 2868 404 300 6 1420 -4
1715 -14z"/>
<path d="M191085 67113 c-1018 -9 -2342 -35 -4510 -88 -2464 -60 -3452 -79
-5025 -95 -699 -7 -872 -12 -950 -24 -259 -43 -408 -116 -477 -234 -40 -68
-40 -137 6 -842 247 -3801 381 -7039 453 -10905 17 -908 17 -4021 0 -4610 -53
-1892 -95 -2971 -207 -5320 -139 -2915 -202 -4760 -221 -6405 -7 -617 -5 -663
37 -776 25 -67 100 -150 167 -187 28 -15 85 -36 128 -47 140 -36 537 -25 1284
35 695 56 765 59 1165 59 425 0 592 -11 1250 -79 697 -72 1017 -96 1305 -99
160 -1 205 2 251 16 119 37 201 117 241 236 23 66 23 72 21 507 -6 933 -47
2166 -138 4090 -91 1924 -135 3268 -135 4131 0 456 7 589 41 759 52 259 152
429 294 499 184 90 1239 121 3910 113 1801 -4 1681 -1 1983 -63 604 -124 1043
-400 1239 -779 22 -44 270 -604 551 -1245 1831 -4183 3042 -6902 3392 -7615
142 -287 254 -416 445 -511 146 -72 186 -77 580 -70 355 5 410 8 1135 56 767
51 864 55 1310 55 443 0 515 -3 1245 -55 708 -50 792 -54 1125 -54 367 -1 397
4 461 70 31 32 34 40 33 92 0 34 -11 91 -28 142 -187 561 -944 2195 -2511
5415 -1610 3309 -2344 4877 -2561 5474 -66 180 -62 243 24 381 58 93 175 196
401 354 708 494 1257 949 1791 1485 669 671 1113 1269 1468 1981 488 977 765
2175 867 3750 49 771 45 1651 -11 2275 -136 1520 -578 2844 -1329 3980 -797
1207 -1993 2225 -3440 2931 -1325 646 -2852 1032 -4615 1168 -648 50 -1185 61
-2445 49z m-1040 -4353 c2568 -56 4308 -370 5311 -961 1287 -757 2008 -2143
2168 -4164 40 -500 44 -1054 11 -1460 -175 -2157 -1327 -3497 -3468 -4036
-583 -146 -1218 -229 -1992 -260 -469 -18 -2111 -3 -3245 31 -1124 33 -1736
66 -2540 135 -387 34 -492 51 -604 98 l-48 20 5 3276 c5 3059 10 3753 37 4761
29 1121 79 1937 126 2067 76 211 626 363 1579 438 706 55 1708 76 2660 55z"/>
<path d="M340 66975 c-148 -34 -264 -124 -312 -243 -23 -56 -23 -63 -26 -522
-9 -1239 64 -3558 218 -6970 119 -2635 170 -4021 212 -5810 15 -656 15 -2352
0 -2965 -43 -1729 -91 -2964 -212 -5515 -157 -3311 -227 -5427 -218 -6615 3
-444 3 -451 26 -508 48 -118 139 -200 267 -240 69 -22 78 -22 650 -21 660 1
1193 16 2660 74 533 21 1085 41 1700 62 249 9 811 13 1630 13 1185 -1 1604 -6
3195 -40 2652 -57 3067 -65 4130 -72 952 -6 1157 -2 1535 33 1874 169 3476
917 4805 2244 984 982 1747 2199 2181 3479 282 831 432 1603 501 2581 17 240
17 1024 0 1210 -85 945 -313 1743 -742 2600 -356 713 -776 1309 -1295 1839
-482 493 -918 821 -1579 1189 -475 264 -631 384 -610 469 10 38 137 164 259
254 55 41 213 150 350 241 339 226 521 370 789 621 899 845 1709 2242 2015
3477 129 523 167 875 158 1475 -7 454 -28 731 -83 1130 -150 1073 -503 2038
-1047 2855 -228 342 -439 600 -742 909 -569 580 -1192 1027 -2000 1436 -1456
737 -3226 1154 -5410 1275 -420 23 -988 29 -3040 35 -1193 3 -2838 10 -3655
15 -817 5 -2556 12 -3865 15 -2087 4 -2388 3 -2445 -10z m9680 -3735 c1853
-44 3195 -202 4161 -490 615 -184 1188 -476 1639 -836 163 -130 444 -409 564
-559 543 -682 816 -1509 843 -2555 21 -824 -185 -1489 -631 -2040 -99 -123
-304 -330 -429 -433 -912 -757 -2401 -1200 -4467 -1331 -541 -35 -772 -40
-1605 -39 -1009 1 -1682 17 -2395 59 -1400 81 -2174 252 -2248 496 -6 19 -13
268 -17 593 -3 308 -10 729 -15 935 -5 206 -13 701 -16 1100 -8 850 1 1221 56
2450 34 746 49 1168 60 1655 5 259 12 487 14 508 28 262 850 426 2386 477 604
20 1489 24 2100 10z m2025 -12389 c606 -33 907 -56 1280 -97 1369 -150 2298
-435 3035 -931 593 -399 1021 -958 1246 -1630 131 -391 191 -774 201 -1273 19
-951 -133 -1826 -435 -2520 -397 -909 -1084 -1576 -2014 -1954 -815 -332
-1834 -518 -3253 -596 -764 -42 -2814 -32 -4175 20 -1509 57 -2350 175 -2435
340 -13 24 -15 88 -15 387 0 391 -9 858 -40 2013 -37 1377 -40 1690 -40 3718
0 2230 -6 2042 67 2100 309 243 1500 382 3723 432 499 11 2610 5 2855 -9z"/>
<path d="M36105 66975 c-101 -21 -204 -75 -259 -136 -92 -103 -107 -202 -82
-549 36 -499 116 -2108 151 -3030 26 -705 35 -1015 45 -1680 6 -360 21 -1006
35 -1435 92 -2876 149 -5151 176 -6940 13 -847 7 -2712 -12 -3860 -7 -379 -12
-1264 -13 -1965 -1 -1249 2 -1423 35 -2010 159 -2881 747 -4840 1774 -5909
546 -569 1331 -1048 2325 -1419 1881 -702 4577 -1041 8005 -1008 2818 27 4787
225 6286 631 1371 372 2440 896 3324 1631 168 139 571 542 709 709 290 350
510 683 706 1070 480 944 747 2412 840 4615 35 827 36 1621 4 3975 -41 3119
-6 4955 186 9580 95 2295 143 3697 181 5340 7 275 13 858 13 1295 l1 795 -23
57 c-32 79 -108 160 -185 198 -114 56 -176 63 -507 56 -297 -5 -475 -16 -1065
-61 -550 -42 -682 -49 -955 -49 -233 -1 -320 4 -730 41 -604 55 -853 67 -1219
60 -325 -5 -473 -21 -657 -67 -196 -49 -337 -138 -389 -245 -20 -39 -20 -70
-19 -1545 2 -2086 24 -3987 109 -9320 73 -4592 113 -9055 86 -9610 -67 -1363
-384 -2366 -988 -3125 -118 -149 -371 -400 -523 -521 -506 -401 -1124 -671
-1976 -863 -1071 -241 -2593 -343 -4184 -280 -1904 75 -3278 395 -4139 966
-261 174 -556 441 -745 678 -575 720 -925 1728 -1061 3055 -60 587 -68 998
-56 2623 20 2451 49 4244 136 8307 92 4301 127 6585 129 8440 l1 1225 -24 47
c-29 60 -89 121 -147 148 -107 52 -100 52 -879 61 -401 4 -1101 13 -1555 19
-454 6 -1268 13 -1810 15 -839 4 -995 3 -1055 -10z"/>
<path d="M147835 66974 c-152 -34 -262 -112 -312 -220 -43 -95 -48 -163 -29
-425 65 -919 198 -3623 236 -4799 6 -179 26 -734 45 -1235 83 -2184 139 -3836
175 -5170 64 -2408 63 -3453 -5 -5400 -43 -1221 -113 -2671 -210 -4390 -172
-3037 -254 -5026 -271 -6645 -6 -540 -5 -603 10 -680 46 -226 181 -363 421
-426 66 -18 123 -19 940 -18 995 1 1890 17 4105 74 802 21 1636 40 2655 62
784 17 3895 17 4630 0 2461 -57 4044 -150 5320 -312 171 -22 432 -55 580 -74
468 -60 627 -66 784 -30 190 43 328 189 366 386 72 379 234 1526 284 2008 18
175 28 221 180 833 225 907 246 1021 238 1302 -3 138 -8 171 -30 240 -37 111
-84 171 -171 215 l-69 35 -141 -2 c-78 -1 -582 -33 -1121 -72 -3145 -226
-5348 -365 -6785 -426 -737 -32 -3737 -52 -4110 -27 -880 57 -1359 146 -1695
315 -112 56 -193 116 -280 208 -295 313 -481 906 -549 1754 -9 105 -18 219
-21 255 -3 36 -10 1251 -15 2700 -4 1449 -9 2650 -9 2667 -1 42 41 185 80 276
133 313 424 510 819 556 200 23 640 46 1215 61 1487 40 5174 40 6840 0 979
-24 1407 -45 2030 -100 908 -81 1528 -129 1770 -137 397 -13 618 57 702 221
25 48 27 64 34 241 31 733 57 1039 174 2076 90 801 126 1232 146 1711 12 294
6 382 -30 463 -43 97 -126 156 -251 177 -58 10 -103 9 -263 -5 -1033 -92
-1837 -150 -2547 -182 -2344 -105 -4232 -147 -7440 -167 -2454 -16 -2297 -16
-2420 5 -381 66 -629 242 -750 533 -90 217 -99 498 -100 3049 0 1749 5 2154
30 2465 67 830 232 1326 512 1533 91 67 159 105 268 150 318 132 755 206 1395
238 254 13 1321 7 1910 -11 1276 -38 2306 -82 4085 -175 2321 -121 3625 -173
4967 -197 765 -13 818 -11 927 40 142 67 206 167 226 357 30 293 -95 1317
-381 3110 -77 485 -87 533 -129 615 -101 199 -298 320 -625 382 -98 18 -159
21 -565 25 -645 7 -1989 -17 -3780 -67 -3036 -85 -3585 -94 -5185 -87 -682 3
-1438 11 -1680 16 -242 6 -640 15 -885 21 -245 6 -854 22 -1355 35 -2137 57
-2976 74 -3985 80 -735 4 -843 3 -905 -11z"/>
<path d="M31430 27979 c-1837 -104 -3589 -769 -5000 -1898 -461 -369 -947
-851 -1317 -1308 -1587 -1955 -2207 -4448 -1712 -6883 43 -209 113 -490 838
-3345 539 -2127 605 -2366 823 -2990 474 -1357 1116 -2646 1911 -3833 2384
-3564 6061 -6130 10297 -7187 1236 -309 2449 -478 3750 -525 459 -17 118950
-9 119185 8 94 7 271 19 395 28 2402 165 4815 844 6952 1955 2449 1274 4541
3082 6119 5290 1145 1603 1993 3374 2525 5272 55 197 1264 4960 1305 5142 141
623 202 1176 202 1835 0 481 -23 799 -89 1230 -264 1730 -1070 3326 -2324
4604 -118 120 -280 278 -360 350 -1207 1095 -2686 1824 -4298 2120 -291 54
-530 86 -917 123 -171 16 -3770 17 -69160 19 -37939 0 -69045 -3 -69125 -7z
m137855 -4469 c1004 -73 1909 -476 2614 -1164 589 -577 980 -1294 1136 -2086
92 -471 93 -960 4 -1445 -25 -140 -1220 -4853 -1306 -5155 -821 -2878 -2660
-5362 -5213 -7043 -686 -451 -1488 -871 -2264 -1184 -1439 -581 -2927 -896
-4506 -953 -222 -8 -16487 -10 -59485 -8 -56162 3 -59192 4 -59420 21 -132 9
-334 26 -450 37 -1895 180 -3699 754 -5340 1698 -1949 1122 -3578 2748 -4677
4667 -528 922 -939 1910 -1212 2915 -38 140 -1022 4016 -1190 4687 -110 440
-141 690 -133 1103 5 296 18 421 68 680 220 1118 949 2116 1974 2701 531 303
1145 484 1805 532 25 2 30962 4 68750 5 46343 1 68751 -1 68845 -8z"/>
</g>
</svg>
